<?xml version="1.0" standalone="no"?>
<!DOCTYPE svg PUBLIC "-//W3C//DTD SVG 20010904//EN"
 "http://www.w3.org/TR/2001/REC-SVG-20010904/DTD/svg10.dtd">
<svg version="1.0" xmlns="http://www.w3.org/2000/svg"
 width="151.000000pt" height="193.000000pt" viewBox="0 0 151.000000 193.000000"
 preserveAspectRatio="xMidYMid meet">
<metadata>
Created by potrace 1.10, written by Peter Selinger 2001-2011
</metadata>
<g transform="translate(0.000000,193.000000) scale(0.100000,-0.100000)"
fill="#000000" stroke="none">
<path d="M172 1853 c-18 -6 -42 -19 -54 -30 -49 -45 -48 -18 -48 -871 l0 -799
23 -33 c49 -74 19 -71 655 -71 322 0 580 4 593 10 26 10 60 44 78 78 8 15 11
202 11 642 l0 621 -122 0 c-68 0 -140 5 -160 10 -59 17 -120 69 -150 129 -26
52 -28 62 -28 190 l0 136 -382 0 c-263 0 -393 -4 -416 -12z m753 -56 c2 -12 6
-67 7 -122 2 -80 8 -109 25 -146 28 -56 70 -99 131 -136 42 -24 58 -28 152
-31 58 -1 115 -5 128 -8 l22 -4 -2 -601 -3 -601 -33 -29 -32 -29 -570 0 -570
0 -32 29 -33 29 0 806 0 805 29 30 c20 20 40 31 65 33 20 2 188 2 373 0 l338
-3 5 -22z"/>
<path d="M320 1525 c-7 -8 -25 -15 -39 -15 -32 0 -81 -46 -81 -76 0 -10 -9
-32 -20 -49 -25 -38 -25 -60 0 -92 11 -14 20 -37 20 -50 0 -30 42 -73 72 -73
13 0 34 -9 48 -20 14 -11 32 -20 40 -20 8 -1 -3 -8 -25 -16 -46 -17 -74 -48
-75 -82 0 -13 -9 -35 -20 -49 -25 -33 -25 -73 0 -106 11 -14 20 -36 20 -50 0
-31 51 -77 86 -77 13 0 33 -9 44 -20 25 -25 68 -25 100 0 14 11 37 20 51 20
31 0 79 48 79 79 0 13 9 34 20 48 25 32 26 78 1 104 -24 27 -26 89 -2 89 9 0
25 -7 35 -15 25 -19 55 -19 80 0 11 8 28 15 37 15 22 0 69 55 69 80 0 10 5 22
10 25 6 3 10 21 10 40 0 19 -4 37 -10 40 -5 3 -10 15 -10 25 0 25 -48 80 -70
80 -10 0 -32 8 -49 17 -28 17 -33 17 -63 2 -18 -9 -46 -22 -63 -30 -16 -7 -33
-15 -37 -17 -5 -2 -8 4 -8 13 0 9 -9 28 -20 42 -11 14 -17 29 -14 34 6 10 -23
58 -46 76 -8 7 -27 13 -41 13 -15 0 -32 7 -39 15 -7 8 -27 15 -45 15 -18 0
-38 -7 -45 -15z m80 -44 c0 -37 25 -47 44 -19 l15 21 26 -25 c24 -25 24 -25 6
-42 -25 -22 -16 -46 15 -46 20 0 24 -5 24 -30 0 -25 -4 -30 -24 -30 -33 0 -43
-30 -16 -50 l21 -16 -26 -24 c-26 -24 -27 -24 -40 -6 -18 25 -45 14 -45 -19 0
-22 -4 -25 -36 -25 -33 0 -36 2 -32 24 6 32 -18 43 -44 19 -18 -16 -20 -16
-40 5 -21 20 -21 22 -5 40 22 24 12 52 -19 52 -20 0 -24 5 -24 30 0 25 4 30
24 30 30 0 42 28 20 45 -16 11 -16 14 2 38 23 32 30 33 44 7 16 -30 49 -10 43
25 -5 23 -2 25 31 25 33 0 36 -2 36 -29z m340 -150 c0 -28 21 -37 36 -16 13
18 14 18 34 0 19 -17 19 -20 4 -36 -19 -21 -11 -39 17 -39 14 0 19 -7 19 -25
0 -18 -5 -25 -19 -25 -28 0 -36 -18 -17 -39 15 -16 15 -19 -5 -37 -20 -18 -21
-18 -34 0 -16 21 -35 13 -35 -15 0 -14 -7 -19 -30 -19 -23 0 -28 4 -23 16 9
23 -18 36 -38 18 -14 -12 -18 -12 -35 7 -17 19 -17 21 -2 30 23 13 11 39 -18
39 -19 0 -24 5 -24 25 0 20 5 25 25 25 18 0 25 5 25 19 0 11 -6 21 -12 24 -9
3 -8 10 6 26 17 19 21 19 35 7 20 -18 47 -5 38 18 -5 12 0 16 23 16 23 0 30
-5 30 -19z m-185 -160 c9 -22 15 -43 11 -49 -10 -16 -50 -8 -81 16 -24 19 -27
25 -15 32 8 5 24 16 35 24 28 22 30 21 50 -23z m-82 -84 c-2 -32 34 -49 49
-23 12 22 31 20 53 -4 17 -19 17 -21 1 -39 -25 -28 -13 -60 19 -53 23 4 25 1
25 -35 0 -37 -2 -40 -24 -36 -31 6 -43 -23 -20 -49 16 -17 16 -20 -6 -43 -23
-25 -24 -25 -44 -6 -28 26 -59 11 -50 -25 6 -23 4 -24 -35 -24 -39 0 -41 2
-35 24 4 18 1 27 -15 35 -16 9 -23 7 -35 -11 l-16 -23 -28 28 c-26 27 -26 29
-9 42 27 20 18 50 -16 50 -25 -1 -27 2 -27 38 0 36 2 39 25 35 32 -7 44 25 20
52 -16 17 -15 20 4 39 25 25 29 26 51 6 24 -22 53 -9 46 20 -7 28 -5 30 36 29
29 -1 33 -4 31 -27z"/>
<path d="M332 1384 c-42 -29 -18 -104 35 -104 49 0 72 76 31 104 -12 9 -27 16
-33 16 -6 0 -21 -7 -33 -16z"/>
<path d="M676 1239 c-20 -30 -6 -63 28 -67 33 -4 56 13 56 42 0 47 -57 63 -84
25z"/>
<path d="M415 988 c-27 -15 -35 -28 -35 -59 0 -52 69 -79 103 -41 46 51 -10
132 -68 100z"/>
<path d="M1150 1308 c-27 -29 -28 -108 -2 -131 26 -23 104 -23 124 1 36 40 31
107 -11 139 -27 21 -88 16 -111 -9z m110 -63 l0 -45 -50 0 -50 0 0 45 0 45 50
0 50 0 0 -45z"/>
<path d="M1147 1073 c-39 -44 -29 -120 19 -142 69 -31 124 1 124 72 0 64 -21
87 -79 87 -33 0 -53 -5 -64 -17z m111 -67 l3 -46 -50 0 -51 0 0 43 c0 24 2 46
4 48 2 2 24 4 48 3 l43 -1 3 -47z"/>
<path d="M1145 828 c-22 -26 -26 -39 -21 -67 8 -50 36 -74 86 -74 50 0 76 22
85 74 5 29 2 41 -20 67 -21 26 -34 32 -65 32 -31 0 -44 -6 -65 -32z m115 -58
l0 -50 -50 0 -50 0 0 50 0 50 50 0 50 0 0 -50z"/>
<path d="M230 600 c-14 -14 -20 -33 -20 -68 0 -87 -34 -82 543 -82 l507 0 20
33 c27 43 25 69 -6 106 l-26 31 -499 0 c-486 0 -500 -1 -519 -20z m1030 -65
l0 -45 -510 0 -510 0 0 45 0 45 510 0 510 0 0 -45z"/>
<path d="M236 369 c-36 -29 -37 -99 -1 -135 l25 -25 496 3 496 3 24 28 c33 39
31 81 -5 118 l-29 29 -490 0 c-480 0 -490 0 -516 -21z m1024 -69 l0 -50 -510
0 -510 0 0 50 0 50 510 0 510 0 0 -50z"/>
<path d="M1070 1728 c4 -117 8 -137 27 -164 35 -50 85 -64 221 -64 l117 0
-180 180 c-99 99 -182 180 -185 180 -3 0 -3 -60 0 -132z m155 -78 c110 -111
111 -117 5 -107 -60 5 -86 20 -109 64 -12 24 -15 143 -3 143 4 0 52 -45 107
-100z"/>
</g>
</svg>
